<?xml version="1.0" encoding="UTF-8"?>
<svg width="138px" height="225px" viewBox="0 0 138 225" version="1.1" xmlns="http://www.w3.org/2000/svg" xmlns:xlink="http://www.w3.org/1999/xlink">
    <!-- Generator: Sketch 52.5 (67469) - http://www.bohemiancoding.com/sketch -->
    <title>Logo/Diblio figur</title>
    <desc>Created with Sketch.</desc>
    <g id="Logo/Diblio-figur" stroke="none" stroke-width="1" fill="none" fill-rule="evenodd">
        <g id="Diblio-figur" fill="#00414B">
            <path d="M2.4726,163.3565 L2.4726,177.5375 C2.4726,180.7735 5.0966,183.3985 8.3346,183.3985 L131.4096,183.3985 C134.6476,183.3985 137.2716,180.7735 137.2716,177.5375 L137.2716,163.3565 C137.2716,160.1205 134.6476,157.4955 131.4096,157.4955 L8.3346,157.4955 C5.0966,157.4955 2.4726,160.1205 2.4726,163.3565" id="Fill-1"></path>
            <path d="M2.4726,121.9596 L2.4726,136.1396 C2.4726,139.3766 5.0966,142.0016 8.3336,142.0016 L92.7796,142.0016 C96.0166,142.0016 98.6406,139.3766 98.6406,136.1396 L98.6406,121.9596 C98.6406,118.7226 96.0166,116.0976 92.7796,116.0976 L8.3336,116.0976 C5.0966,116.0976 2.4726,118.7226 2.4726,121.9596" id="Fill-4"></path>
            <path d="M2.4726,204.754 L2.4726,218.934 C2.4726,222.171 5.0966,224.796 8.3336,224.796 L112.0946,224.796 C115.3316,224.796 117.9556,222.171 117.9556,218.934 L117.9556,204.754 C117.9556,201.517 115.3316,198.892 112.0946,198.892 L8.3336,198.892 C5.0966,198.892 2.4726,201.517 2.4726,204.754" id="Fill-6"></path>
            <path d="M50.5068,101.0133 C22.6578,101.0133 -0.0002,78.3563 -0.0002,50.5063 C-0.0002,22.6573 22.6578,0.0003 50.5068,0.0003 C78.3568,0.0003 101.0128,22.6573 101.0128,50.5063 C101.0128,78.3563 78.3568,101.0133 50.5068,101.0133 M50.5068,25.3513 C36.6358,25.3513 25.3508,36.6363 25.3508,50.5063 C25.3508,64.3773 36.6358,75.6623 50.5068,75.6623 C64.3768,75.6623 75.6618,64.3773 75.6618,50.5063 C75.6618,36.6363 64.3768,25.3513 50.5068,25.3513" id="Fill-8"></path>
        </g>
    </g>
</svg>