<?xml version="1.0" standalone="no"?>
<!DOCTYPE svg PUBLIC "-//W3C//DTD SVG 20010904//EN"
 "http://www.w3.org/TR/2001/REC-SVG-20010904/DTD/svg10.dtd">
<svg version="1.0" xmlns="http://www.w3.org/2000/svg"
 width="640.000000pt" height="640.000000pt" viewBox="0 0 640.000000 640.000000"
 preserveAspectRatio="xMidYMid meet">
<metadata>
Created by potrace 1.11, written by Peter Selinger 2001-2013
</metadata>
<g transform="translate(0.000000,640.000000) scale(0.100000,-0.100000)"
fill="#000000" stroke="none">
<path d="M2836 5749 c-176 -36 -309 -90 -446 -184 -47 -31 -92 -65 -101 -74
-9 -9 -29 -28 -45 -42 -53 -48 -111 -115 -159 -184 -48 -71 -140 -245 -129
-245 4 0 2 -6 -4 -12 -14 -19 -42 -120 -57 -213 -17 -100 -13 -314 8 -410 76
-347 302 -637 625 -799 81 -41 198 -82 275 -97 28 -5 66 -12 82 -15 94 -18
307 -8 440 20 205 44 447 187 595 352 127 142 206 282 256 452 214 739 -353
1476 -1132 1470 -72 -1 -156 -8 -208 -19z m326 -569 c101 -18 218 -80 297
-158 121 -120 173 -247 173 -417 0 -79 -8 -116 -39 -195 -45 -113 -114 -199
-216 -267 -278 -185 -654 -103 -825 179 -50 84 -74 162 -80 264 -8 159 38 289
151 420 57 67 211 154 298 169 18 3 35 7 36 9 9 8 150 6 205 -4z"/>
<path d="M2008 3098 c-65 -37 -71 -59 -71 -257 0 -97 3 -192 6 -212 9 -43 50
-84 97 -96 19 -5 483 -8 1030 -8 1115 1 1040 -4 1079 74 18 34 20 59 20 224
-1 207 -7 234 -66 273 l-32 21 -1014 0 c-992 0 -1016 0 -1049 -19z"/>
<path d="M2080 2170 c-65 -6 -103 -28 -126 -71 -13 -26 -16 -67 -16 -219 -1
-214 8 -248 72 -282 33 -17 99 -18 1487 -18 929 0 1461 4 1478 10 78 30 91 72
89 296 -2 201 -7 224 -63 261 -28 19 -48 23 -110 23 -641 4 -2770 4 -2811 0z"/>
<path d="M2010 1208 c-65 -33 -72 -61 -72 -284 0 -217 5 -235 70 -270 34 -18
73 -19 1271 -19 l1236 0 36 23 c56 34 63 63 64 257 1 182 -5 236 -33 264 -45
48 11 46 -1301 47 -1188 0 -1235 0 -1271 -18z"/>
</g>
</svg>
