<svg xmlns="http://www.w3.org/2000/svg" viewBox="0 0 356 498"><defs><style>.cls-1{fill:none;stroke:#000;stroke-width:18px;}</style></defs><title>Asset 1</title><g id="Layer_2" data-name="Layer 2"><g id="Layer_1-2" data-name="Layer 1"><path class="cls-1" d="M264,65h71a12,12,0,0,1,12,12V477a12,12,0,0,1-12,12H21A12,12,0,0,1,9,477V77A12,12,0,0,1,21,65H93"/><rect class="cls-1" x="67" y="416" width="220" height="1" rx="0.5" ry="0.5"/><rect class="cls-1" x="67" y="336" width="220" height="1" rx="0.5" ry="0.5"/><rect class="cls-1" x="67" y="256" width="220" height="1" rx="0.5" ry="0.5"/><rect class="cls-1" x="67" y="176" width="220" height="1" rx="0.5" ry="0.5"/><path class="cls-1" d="M252,42H215.78a37,37,0,0,0-73.56,0H105A12,12,0,0,0,93,54V88a12,12,0,0,0,12,12H252a12,12,0,0,0,12-12V54A12,12,0,0,0,252,42Z"/></g></g></svg>