<?xml version="1.0" encoding="UTF-8"?>
<svg width="901px" height="204px" viewBox="0 0 901 204" version="1.1" xmlns="http://www.w3.org/2000/svg" xmlns:xlink="http://www.w3.org/1999/xlink">
    <!-- Generator: Sketch 61.2 (89653) - https://sketch.com -->
    <title>Logo/Læsekompas logo w payoff - large Copy</title>
    <desc>Created with Sketch.</desc>
    <g id="Logo/Læsekompas-logo-w-payoff---large-Copy" stroke="none" stroke-width="1" fill="none" fill-rule="evenodd">
        <g id="Logo/Logotype-petroleum" transform="translate(129.000000, 55.000000)" fill="#00414B">
            <path d="M4.35045783,5.26956522 L21.4014458,5.26956522 L21.4014458,65.1318261 L58.345253,65.1318261 L58.345253,79.0434783 L4.35045783,79.0434783 L4.35045783,5.26956522 Z M160.545928,50.4824348 C160.545928,52.2389653 160.440676,53.8198191 160.230169,55.2250435 L117.28694,55.2250435 C118.058799,58.8083657 119.848082,61.6187724 122.654843,63.6563478 C125.461604,65.6939232 129.040171,66.7126957 133.390651,66.7126957 C138.863835,66.7126957 143.635257,64.8859313 147.70506,61.2323478 L156.44106,70.7175652 C153.704468,73.7387977 150.353948,76.0222531 146.389398,77.568 C142.424848,79.1137469 137.986723,79.8866087 133.074892,79.8866087 C128.092891,79.8866087 123.496889,79.0786168 119.286747,77.4626087 C115.076605,75.8466006 111.498039,73.3874948 108.55094,70.0852174 C104.20046,76.6195109 96.973159,79.8866087 86.8688193,79.8866087 C79.5010716,79.8866087 73.6946718,78.2706249 69.4494458,75.0386087 C65.2042197,71.8065925 63.0816386,67.4855923 63.0816386,62.0754783 C63.0816386,57.1571928 65.0814258,53.1874934 69.0810602,50.1662609 C73.0806947,47.1450284 79.1853083,45.6344348 87.3950843,45.6344348 L100.446458,45.6344348 C100.446458,42.1213737 99.3588542,39.3987923 97.1836145,37.4666087 C95.0083747,35.5344251 91.7806479,34.5683478 87.5003373,34.5683478 C84.4830693,34.5683478 81.5009304,35.042604 78.5538313,35.9911304 C75.6067323,36.9396569 73.1157692,38.221905 71.0808675,39.837913 L65.1866988,28.3502609 C68.2741359,26.172163 71.9579545,24.485919 76.2382651,23.2914783 C80.5185756,22.0970375 84.9391579,21.4998261 89.5001446,21.4998261 C99.0431321,21.4998261 105.989761,24.1697124 110.340241,29.5095652 C112.936495,26.9801613 116.023886,25.0128766 119.602506,23.6076522 C123.181126,22.2024278 127.040365,21.4998261 131.180337,21.4998261 C136.583352,21.4998261 141.530194,22.6942489 146.021012,25.0831304 C150.51183,27.4720119 154.055312,30.87963 156.651566,35.306087 C159.24782,39.7325439 160.545928,44.7912759 160.545928,50.4824348 Z M130.969831,33.936 C127.531549,33.936 124.514326,34.9547724 121.918072,36.9923478 C119.321818,39.0299232 117.707955,41.9105901 117.076434,45.6344348 L144.652723,45.6344348 C144.091371,41.9105901 142.530133,39.0299232 139.968964,36.9923478 C137.407794,34.9547724 134.408114,33.936 130.969831,33.936 Z M88.5528675,68.8205217 C92.2718258,68.8205217 95.1837967,67.8368794 97.2888675,65.8695652 C99.3939382,63.902251 100.446458,61.2323647 100.446458,57.8598261 L100.446458,55.2250435 L89.1843855,55.2250435 C82.4481591,55.2250435 79.0800964,57.4031087 79.0800964,61.7593043 C79.0800964,64.0076634 79.9045701,65.7466025 81.5535422,66.9761739 C83.2025143,68.2057453 85.5355994,68.8205217 88.5528675,68.8205217 Z M190.648289,79.8866087 C185.946964,79.8866087 181.350962,79.3069623 176.860145,78.1476522 C172.369327,76.988342 168.79076,75.5304436 166.124337,73.773913 L171.597494,61.970087 C174.123579,63.586095 177.175886,64.9034732 180.754506,65.9222609 C184.333126,66.9410486 187.841525,67.4504348 191.279807,67.4504348 C198.226541,67.4504348 201.699855,65.7290607 201.699855,62.2862609 C201.699855,60.6702528 200.752588,59.51096 198.858024,58.8083478 C196.96346,58.1057356 194.05149,57.5085242 190.122024,57.0166957 C185.490868,56.3140834 181.666714,55.5060915 178.649446,54.5926957 C175.632178,53.6792998 173.018421,52.0633159 170.808096,49.7446957 C168.597772,47.4260754 167.492627,44.1238475 167.492627,39.837913 C167.492627,36.2545908 168.527604,33.0753182 170.59759,30.3 C172.667577,27.5246818 175.684799,25.3641816 179.649349,23.8184348 C183.613899,22.2726879 188.297612,21.4998261 193.700627,21.4998261 C197.700261,21.4998261 201.682293,21.9389521 205.646843,22.8172174 C209.611393,23.6954827 212.891746,24.9074705 215.488,26.4532174 L210.014843,38.1516522 C205.032843,35.3412033 199.594825,33.936 193.700627,33.936 C190.192175,33.936 187.560876,34.4278212 185.806651,35.4114783 C184.052425,36.3951354 183.175325,37.6598184 183.175325,39.2055652 C183.175325,40.9620957 184.122593,42.1916487 186.017157,42.8942609 C187.91172,43.5968731 190.928943,44.2643447 195.068916,44.8966957 C199.700071,45.6695691 203.489142,46.495126 206.436241,47.3733913 C209.38334,48.2516566 211.944471,49.8500754 214.119711,52.1686957 C216.294951,54.4873159 217.382554,57.7192836 217.382554,61.8646957 C217.382554,65.3777567 216.330035,68.5043341 214.224964,71.2445217 C212.119893,73.9847094 209.050044,76.1100794 205.015325,77.6206957 C200.980606,79.1313119 196.191642,79.8866087 190.648289,79.8866087 Z M282.955181,50.904 C282.955181,51.1147837 282.849929,52.5902472 282.639422,55.3304348 L239.801446,55.3304348 C240.573305,58.8434958 242.397672,61.6187724 245.274602,63.6563478 C248.151532,65.6939232 251.730099,66.7126957 256.01041,66.7126957 C258.957509,66.7126957 261.571266,66.2735696 263.851759,65.3953043 C266.132252,64.5170391 268.254834,63.1294008 270.219566,61.2323478 L278.955566,70.7175652 C273.62272,76.8302914 265.834075,79.8866087 255.589398,79.8866087 C249.204016,79.8866087 243.555494,78.6394907 238.643663,76.1452174 C233.731831,73.6509441 229.94276,70.1906308 227.276337,65.7641739 C224.609914,61.337717 223.276723,56.3141151 223.276723,50.6932174 C223.276723,45.1425809 224.592372,40.136544 227.223711,35.6749565 C229.855049,31.213369 233.4687,27.7354907 238.064771,25.2412174 C242.660842,22.7469441 247.800646,21.4998261 253.484337,21.4998261 C259.02769,21.4998261 264.0447,22.6942489 268.535518,25.0831304 C273.026336,27.4720119 276.552276,30.8971951 279.113446,35.3587826 C281.674615,39.8203701 282.955181,45.0020574 282.955181,50.904 Z M253.58959,33.936 C249.870632,33.936 246.748157,34.9899025 244.222072,37.0977391 C241.695987,39.2055758 240.152292,42.0862426 239.59094,45.7398261 L267.482988,45.7398261 C266.921636,42.1565038 265.37794,39.293402 262.851855,37.1504348 C260.325771,35.0074675 257.23838,33.936 253.58959,33.936 Z M318.21494,56.805913 L310.320964,64.6048696 L310.320964,79.0434783 L293.901494,79.0434783 L293.901494,0.843130435 L310.320964,0.843130435 L310.320964,45.1074783 L334.318651,22.3429565 L353.895711,22.3429565 L330.319036,46.3721739 L356.000771,79.0434783 L336.107952,79.0434783 L318.21494,56.805913 Z M390.313253,79.8866087 C384.348886,79.8866087 378.998578,78.6394907 374.262169,76.1452174 C369.525759,73.6509441 365.824399,70.1906308 363.157976,65.7641739 C360.491553,61.337717 359.158361,56.3141151 359.158361,50.6932174 C359.158361,45.0723197 360.491553,40.0487178 363.157976,35.6222609 C365.824399,31.195804 369.525759,27.7354907 374.262169,25.2412174 C378.998578,22.7469441 384.348886,21.4998261 390.313253,21.4998261 C396.27762,21.4998261 401.610386,22.7469441 406.311711,25.2412174 C411.013036,27.7354907 414.696854,31.195804 417.363277,35.6222609 C420.0297,40.0487178 421.362892,45.0723197 421.362892,50.6932174 C421.362892,56.3141151 420.0297,61.337717 417.363277,65.7641739 C414.696854,70.1906308 411.013036,73.6509441 406.311711,76.1452174 C401.610386,78.6394907 396.27762,79.8866087 390.313253,79.8866087 Z M390.313253,66.3965217 C394.523395,66.3965217 397.979167,64.9737534 400.680675,62.1281739 C403.382182,59.2825945 404.732916,55.4709804 404.732916,50.6932174 C404.732916,45.9154544 403.382182,42.1038403 400.680675,39.2582609 C397.979167,36.4126814 394.523395,34.989913 390.313253,34.989913 C386.103111,34.989913 382.629797,36.4126814 379.893205,39.2582609 C377.156613,42.1038403 375.788337,45.9154544 375.788337,50.6932174 C375.788337,55.4709804 377.156613,59.2825945 379.893205,62.1281739 C382.629797,64.9737534 386.103111,66.3965217 390.313253,66.3965217 Z M504.82853,21.4998261 C511.915602,21.4998261 517.546582,23.5900661 521.721639,27.7706087 C525.896696,31.9511513 527.984193,38.2218712 527.984193,46.5829565 L527.984193,79.0434783 L511.564723,79.0434783 L511.564723,49.1123478 C511.564723,44.6156297 510.634997,41.2607067 508.775518,39.0474783 C506.916039,36.8342498 504.267198,35.7276522 500.828916,35.7276522 C496.969619,35.7276522 493.917312,36.9747701 491.671904,39.4690435 C489.426495,41.9633168 488.303807,45.6695406 488.303807,50.5878261 L488.303807,79.0434783 L471.884337,79.0434783 L471.884337,49.1123478 C471.884337,40.1891728 468.305771,35.7276522 461.14853,35.7276522 C457.359403,35.7276522 454.34218,36.9747701 452.096771,39.4690435 C449.851362,41.9633168 448.728675,45.6695406 448.728675,50.5878261 L448.728675,79.0434783 L432.309205,79.0434783 L432.309205,22.3429565 L447.991904,22.3429565 L447.991904,28.8772174 C450.096974,26.4883359 452.675647,24.6615715 455.728,23.3968696 C458.780353,22.1321676 462.130873,21.4998261 465.779663,21.4998261 C469.779297,21.4998261 473.392948,22.290253 476.620723,23.8711304 C479.848498,25.4520079 482.444713,27.7530284 484.409446,30.7742609 C486.725024,27.8232896 489.654536,25.5398342 493.198072,23.9238261 C496.741608,22.307818 500.618389,21.4998261 504.82853,21.4998261 Z M576.190072,21.4998261 C581.452749,21.4998261 586.241713,22.711814 590.557108,25.1358261 C594.872504,27.5598382 598.258108,30.9674563 600.714024,35.3587826 C603.16994,39.7501089 604.39788,44.8615361 604.39788,50.6932174 C604.39788,56.5248987 603.16994,61.6363259 600.714024,66.0276522 C598.258108,70.4189785 594.872504,73.8265966 590.557108,76.2506087 C586.241713,78.6746208 581.452749,79.8866087 576.190072,79.8866087 C568.962663,79.8866087 563.279057,77.6031533 559.139084,73.0361739 L559.139084,99.4893913 L542.719614,99.4893913 L542.719614,22.3429565 L558.402313,22.3429565 L558.402313,28.8772174 C562.472117,23.9589319 568.40131,21.4998261 576.190072,21.4998261 Z M573.348241,66.3965217 C577.558382,66.3965217 581.014155,64.9737534 583.715663,62.1281739 C586.41717,59.2825945 587.767904,55.4709804 587.767904,50.6932174 C587.767904,45.9154544 586.41717,42.1038403 583.715663,39.2582609 C581.014155,36.4126814 577.558382,34.989913 573.348241,34.989913 C569.138099,34.989913 565.682327,36.4126814 562.980819,39.2582609 C560.279312,42.1038403 558.928578,45.9154544 558.928578,50.6932174 C558.928578,55.4709804 560.279312,59.2825945 562.980819,62.1281739 C565.682327,64.9737534 569.138099,66.3965217 573.348241,66.3965217 Z M638.184096,21.4998261 C646.955225,21.4998261 653.69135,23.5900661 658.392675,27.7706087 C663.093999,31.9511513 665.444627,38.2570013 665.444627,46.6883478 L665.444627,79.0434783 L650.077687,79.0434783 L650.077687,71.9822609 C646.99025,77.2518524 641.236476,79.8866087 632.816193,79.8866087 C628.465713,79.8866087 624.694185,79.1488769 621.501494,77.6733913 C618.308803,76.1979057 615.870466,74.1603608 614.18641,71.5606957 C612.502353,68.9610305 611.660337,66.0101035 611.660337,62.7078261 C611.660337,57.4382345 613.642583,53.2928847 617.607133,50.2716522 C621.571682,47.2504197 627.693838,45.7398261 635.973783,45.7398261 L649.025157,45.7398261 C649.025157,42.1565038 647.937553,39.3987923 645.762313,37.4666087 C643.587073,35.5344251 640.324263,34.5683478 635.973783,34.5683478 C632.956515,34.5683478 629.991918,35.042604 627.079904,35.9911304 C624.167889,36.9396569 621.694468,38.221905 619.659566,39.837913 L613.765398,28.3502609 C616.852835,26.172163 620.554195,24.485919 624.86959,23.2914783 C629.184985,22.0970375 633.62311,21.4998261 638.184096,21.4998261 Z M636.92106,68.8205217 C639.727821,68.8205217 642.218784,68.1706152 644.394024,66.8707826 C646.569264,65.57095 648.112959,63.6563605 649.025157,61.1269565 L649.025157,55.3304348 L637.763084,55.3304348 C631.026858,55.3304348 627.658795,57.54363 627.658795,61.970087 C627.658795,64.0779236 628.483269,65.7466025 630.132241,66.9761739 C631.781213,68.2057453 634.04413,68.8205217 636.92106,68.8205217 Z M699.336096,79.8866087 C694.634772,79.8866087 690.038769,79.3069623 685.547952,78.1476522 C681.057134,76.988342 677.478568,75.5304436 674.812145,73.773913 L680.285301,61.970087 C682.811386,63.586095 685.863693,64.9034732 689.442313,65.9222609 C693.020934,66.9410486 696.529332,67.4504348 699.967614,67.4504348 C706.914348,67.4504348 710.387663,65.7290607 710.387663,62.2862609 C710.387663,60.6702528 709.440395,59.51096 707.545831,58.8083478 C705.651268,58.1057356 702.739297,57.5085242 698.809831,57.0166957 C694.178676,56.3140834 690.354521,55.5060915 687.337253,54.5926957 C684.319985,53.6792998 681.706228,52.0633159 679.495904,49.7446957 C677.285579,47.4260754 676.180434,44.1238475 676.180434,39.837913 C676.180434,36.2545908 677.215411,33.0753182 679.285398,30.3 C681.355384,27.5246818 684.372607,25.3641816 688.337157,23.8184348 C692.301707,22.2726879 696.985419,21.4998261 702.388434,21.4998261 C706.388068,21.4998261 710.370101,21.9389521 714.334651,22.8172174 C718.299201,23.6954827 721.579553,24.9074705 724.175807,26.4532174 L718.702651,38.1516522 C713.72065,35.3412033 708.282632,33.936 702.388434,33.936 C698.879982,33.936 696.248683,34.4278212 694.494458,35.4114783 C692.740232,36.3951354 691.863133,37.6598184 691.863133,39.2055652 C691.863133,40.9620957 692.8104,42.1916487 694.704964,42.8942609 C696.599528,43.5968731 699.61675,44.2643447 703.756723,44.8966957 C708.387879,45.6695691 712.176949,46.495126 715.124048,47.3733913 C718.071147,48.2516566 720.632278,49.8500754 722.807518,52.1686957 C724.982758,54.4873159 726.070361,57.7192836 726.070361,61.8646957 C726.070361,65.3777567 725.017842,68.5043341 722.912771,71.2445217 C720.8077,73.9847094 717.737851,76.1100794 713.703133,77.6206957 C709.668414,79.1313119 704.879449,79.8866087 699.336096,79.8866087 Z" id="Læsekompas"></path>
        </g>
        <g id="Logo/Diblio-figur-petroleum" transform="translate(1.000000, 0.000000)" fill="#00414B">
            <g id="Diblio-figur">
                <path d="M1.47995036,97.2878711 L1.47995036,105.733444 C1.47995036,107.660662 3.05051971,109.223996 4.9885927,109.223996 L78.6539212,109.223996 C80.5919942,109.223996 82.1625635,107.660662 82.1625635,105.733444 L82.1625635,97.2878711 C82.1625635,95.3606533 80.5919942,93.79732 78.6539212,93.79732 L4.9885927,93.79732 C3.05051971,93.79732 1.47995036,95.3606533 1.47995036,97.2878711" id="Fill-1"></path>
                <path d="M1.47995036,72.6337173 L1.47995036,81.0786951 C1.47995036,83.0065084 3.05051971,84.5698418 4.98799416,84.5698418 L55.5323153,84.5698418 C57.4697898,84.5698418 59.0403591,83.0065084 59.0403591,81.0786951 L59.0403591,72.6337173 C59.0403591,70.705904 57.4697898,69.1425707 55.5323153,69.1425707 L4.98799416,69.1425707 C3.05051971,69.1425707 1.47995036,70.705904 1.47995036,72.6337173" id="Fill-4"></path>
                <path d="M1.47995036,121.942382 L1.47995036,130.38736 C1.47995036,132.315173 3.05051971,133.878507 4.98799416,133.878507 L67.0931182,133.878507 C69.0305927,133.878507 70.601162,132.315173 70.601162,130.38736 L70.601162,121.942382 C70.601162,120.014569 69.0305927,118.451236 67.0931182,118.451236 L4.98799416,118.451236 C3.05051971,118.451236 1.47995036,120.014569 1.47995036,121.942382" id="Fill-6"></path>
                <path d="M30.2303474,60.159032 C13.5616029,60.159032 -0.000119708029,46.6655298 -0.000119708029,30.0793076 C-0.000119708029,13.4936809 13.5616029,0.000178666667 30.2303474,0.000178666667 C46.8996905,0.000178666667 60.4602161,13.4936809 60.4602161,30.0793076 C60.4602161,46.6655298 46.8996905,60.159032 30.2303474,60.159032 M30.2303474,15.0981076 C21.9279971,15.0981076 15.1734715,21.818952 15.1734715,30.0793076 C15.1734715,38.3402587 21.9279971,45.0611031 30.2303474,45.0611031 C38.5320993,45.0611031 45.2866248,38.3402587 45.2866248,30.0793076 C45.2866248,21.818952 38.5320993,15.0981076 30.2303474,15.0981076" id="Fill-8"></path>
            </g>
        </g>
        <path d="M28.91,194 L28.91,188.61 L10.976,188.61 L10.976,159.7 L4.606,159.7 L4.606,194 L28.91,194 Z M36.217,194 L39.598,186.062 L56.748,186.062 L60.178,194 L66.842,194 L51.358,159.7 L45.086,159.7 L29.651,194 L36.217,194 Z M54.641,181.064 L41.754,181.064 L48.173,166.07 L54.641,181.064 Z M86.497,194 C90.1556667,194 93.406,193.2895 96.248,191.8685 C99.09,190.4475 101.295,188.4385 102.863,185.8415 C104.431,183.2445 105.215,180.247333 105.215,176.85 C105.215,173.452667 104.431,170.4555 102.863,167.8585 C101.295,165.2615 99.09,163.2525 96.248,161.8315 C93.406,160.4105 90.1556667,159.7 86.497,159.7 L86.497,159.7 L71.503,159.7 L71.503,194 L86.497,194 Z M86.203,188.61 L77.873,188.61 L77.873,165.09 L86.203,165.09 C88.7183333,165.09 90.9315,165.571833 92.8425,166.5355 C94.7535,167.499167 96.2235,168.871167 97.2525,170.6515 C98.2815,172.431833 98.796,174.498 98.796,176.85 C98.796,179.202 98.2815,181.268167 97.2525,183.0485 C96.2235,184.828833 94.7535,186.200833 92.8425,187.1645 C90.9315,188.128167 88.7183333,188.61 86.203,188.61 L86.203,188.61 Z M143.153,194 C147.530333,194 150.862333,193.1915 153.149,191.5745 C155.435667,189.9575 156.579,187.662667 156.579,184.69 C156.579,182.534 156.023667,180.729167 154.913,179.2755 C153.802333,177.821833 152.299667,176.784667 150.405,176.164 C151.777,175.445333 152.855,174.432667 153.639,173.126 C154.423,171.819333 154.815,170.316667 154.815,168.618 C154.815,165.841333 153.720667,163.660833 151.532,162.0765 C149.343333,160.492167 146.223667,159.7 142.173,159.7 L142.173,159.7 L126.101,159.7 L126.101,194 L143.153,194 Z M141.487,174.155 L132.471,174.155 L132.471,164.698 L141.487,164.698 C143.708333,164.698 145.415167,165.098167 146.6075,165.8985 C147.799833,166.698833 148.396,167.883 148.396,169.451 C148.396,170.986333 147.799833,172.154167 146.6075,172.9545 C145.415167,173.754833 143.708333,174.155 141.487,174.155 L141.487,174.155 Z M142.761,189.002 L132.471,189.002 L132.471,179.104 L142.761,179.104 C147.693667,179.104 150.16,180.753667 150.16,184.053 C150.16,187.352333 147.693667,189.002 142.761,189.002 L142.761,189.002 Z M170.06,194 L170.06,159.7 L163.69,159.7 L163.69,194 L170.06,194 Z M196.673,194 C201.050333,194 204.382333,193.1915 206.669,191.5745 C208.955667,189.9575 210.099,187.662667 210.099,184.69 C210.099,182.534 209.543667,180.729167 208.433,179.2755 C207.322333,177.821833 205.819667,176.784667 203.925,176.164 C205.297,175.445333 206.375,174.432667 207.159,173.126 C207.943,171.819333 208.335,170.316667 208.335,168.618 C208.335,165.841333 207.240667,163.660833 205.052,162.0765 C202.863333,160.492167 199.743667,159.7 195.693,159.7 L195.693,159.7 L179.621,159.7 L179.621,194 L196.673,194 Z M195.007,174.155 L185.991,174.155 L185.991,164.698 L195.007,164.698 C197.228333,164.698 198.935167,165.098167 200.1275,165.8985 C201.319833,166.698833 201.916,167.883 201.916,169.451 C201.916,170.986333 201.319833,172.154167 200.1275,172.9545 C198.935167,173.754833 197.228333,174.155 195.007,174.155 L195.007,174.155 Z M196.281,189.002 L185.991,189.002 L185.991,179.104 L196.281,179.104 C201.213667,179.104 203.68,180.753667 203.68,184.053 C203.68,187.352333 201.213667,189.002 196.281,189.002 L196.281,189.002 Z M241.514,194 L241.514,188.61 L223.58,188.61 L223.58,159.7 L217.21,159.7 L217.21,194 L241.514,194 Z M253.231,194 L253.231,159.7 L246.861,159.7 L246.861,194 L253.231,194 Z M278.815,194.49 C282.310333,194.49 285.462667,193.7305 288.272,192.2115 C291.081333,190.6925 293.286333,188.593667 294.887,185.915 C296.487667,183.236333 297.288,180.214667 297.288,176.85 C297.288,173.485333 296.487667,170.463667 294.887,167.785 C293.286333,165.106333 291.081333,163.0075 288.272,161.4885 C285.462667,159.9695 282.310333,159.21 278.815,159.21 C275.319667,159.21 272.167333,159.9695 269.358,161.4885 C266.548667,163.0075 264.343667,165.1145 262.743,167.8095 C261.142333,170.5045 260.342,173.518 260.342,176.85 C260.342,180.182 261.142333,183.1955 262.743,185.8905 C264.343667,188.5855 266.548667,190.6925 269.358,192.2115 C272.167333,193.7305 275.319667,194.49 278.815,194.49 Z M278.815,188.904 C276.528333,188.904 274.470333,188.3895 272.641,187.3605 C270.811667,186.3315 269.374333,184.894167 268.329,183.0485 C267.283667,181.202833 266.761,179.136667 266.761,176.85 C266.761,174.563333 267.283667,172.497167 268.329,170.6515 C269.374333,168.805833 270.811667,167.3685 272.641,166.3395 C274.470333,165.3105 276.528333,164.796 278.815,164.796 C281.101667,164.796 283.159667,165.3105 284.989,166.3395 C286.818333,167.3685 288.255667,168.805833 289.301,170.6515 C290.346333,172.497167 290.869,174.563333 290.869,176.85 C290.869,179.136667 290.346333,181.202833 289.301,183.0485 C288.255667,184.894167 286.818333,186.3315 284.989,187.3605 C283.159667,188.3895 281.101667,188.904 278.815,188.904 Z M317.188,194 L317.188,165.09 L328.556,165.09 L328.556,159.7 L299.45,159.7 L299.45,165.09 L310.818,165.09 L310.818,194 L317.188,194 Z M359.383,194 L359.383,188.659 L340.028,188.659 L340.028,179.202 L356.59,179.202 L356.59,173.959 L340.028,173.959 L340.028,165.041 L358.697,165.041 L358.697,159.7 L333.658,159.7 L333.658,194 L359.383,194 Z M373.158,194 L373.158,185.229 L378.597,179.643 L390.7,194 L398.148,194 L382.86,175.037 L397.266,159.7 L390.112,159.7 L373.158,177.291 L373.158,159.7 L366.788,159.7 L366.788,194 L373.158,194 Z M428.534,194 L428.534,188.659 L409.179,188.659 L409.179,179.202 L425.741,179.202 L425.741,173.959 L409.179,173.959 L409.179,165.041 L427.848,165.041 L427.848,159.7 L402.809,159.7 L402.809,194 L428.534,194 Z M449.267,194 L449.267,165.09 L460.635,165.09 L460.635,159.7 L431.529,159.7 L431.529,165.09 L442.897,165.09 L442.897,194 L449.267,194 Z M485.931,194 L485.931,159.7 L479.561,159.7 L479.561,194 L485.931,194 Z M501.813,194 L501.813,170.774 L520.727,194 L525.97,194 L525.97,159.7 L519.649,159.7 L519.649,182.926 L500.735,159.7 L495.492,159.7 L495.492,194 L501.813,194 Z M546.115,194.49 C549.120333,194.49 551.668333,194.032667 553.759,193.118 C555.849667,192.203333 557.4095,190.978333 558.4385,189.443 C559.4675,187.907667 559.982,186.192667 559.982,184.298 C559.982,182.076667 559.402167,180.312667 558.2425,179.006 C557.082833,177.699333 555.686333,176.7275 554.053,176.0905 C552.419667,175.4535 550.329,174.841 547.781,174.253 C545.919,173.795667 544.449,173.387333 543.371,173.028 C542.293,172.668667 541.402833,172.178667 540.7005,171.558 C539.998167,170.937333 539.647,170.137 539.647,169.157 C539.647,167.752333 540.2595,166.625333 541.4845,165.776 C542.7095,164.926667 544.579667,164.502 547.095,164.502 C548.630333,164.502 550.214667,164.730667 551.848,165.188 C553.481333,165.645333 555.049333,166.315 556.552,167.197 L556.552,167.197 L558.561,162.248 C557.091,161.268 555.343333,160.516667 553.318,159.994 C551.292667,159.471333 549.234667,159.21 547.144,159.21 C544.138667,159.21 541.598833,159.667333 539.5245,160.582 C537.450167,161.496667 535.8985,162.729833 534.8695,164.2815 C533.8405,165.833167 533.326,167.556333 533.326,169.451 C533.326,171.705 533.905833,173.4935 535.0655,174.8165 C536.225167,176.1395 537.6135,177.111333 539.2305,177.732 C540.8475,178.352667 542.962667,178.973333 545.576,179.594 C547.438,180.051333 548.908,180.459667 549.986,180.819 C551.064,181.178333 551.954167,181.6765 552.6565,182.3135 C553.358833,182.9505 553.71,183.759 553.71,184.739 C553.71,186.078333 553.081167,187.156333 551.8235,187.973 C550.565833,188.789667 548.663,189.198 546.115,189.198 C544.057,189.198 542.007167,188.846833 539.9655,188.1445 C537.923833,187.442167 536.200667,186.535667 534.796,185.425 L534.796,185.425 L532.591,190.374 C534.028333,191.615333 535.980167,192.611667 538.4465,193.363 C540.912833,194.114333 543.469,194.49 546.115,194.49 Z M572.973,194 L572.973,184.102 L580.715,184.102 C583.687667,184.102 586.2765,183.612 588.4815,182.632 C590.6865,181.652 592.377,180.239167 593.553,178.3935 C594.729,176.547833 595.317,174.383667 595.317,171.901 C595.317,169.385667 594.729,167.213333 593.553,165.384 C592.377,163.554667 590.6865,162.15 588.4815,161.17 C586.2765,160.19 583.687667,159.7 580.715,159.7 L580.715,159.7 L566.603,159.7 L566.603,194 L572.973,194 Z M580.421,178.712 L572.973,178.712 L572.973,165.09 L580.421,165.09 C583.197667,165.09 585.304667,165.678 586.742,166.854 C588.179333,168.03 588.898,169.712333 588.898,171.901 C588.898,174.089667 588.179333,175.772 586.742,176.948 C585.304667,178.124 583.197667,178.712 580.421,178.712 L580.421,178.712 Z M608.357,194 L608.357,159.7 L601.987,159.7 L601.987,194 L608.357,194 Z M624.288,194 L624.288,184.004 L632.03,184.004 C632.618,184.004 633.059,183.987667 633.353,183.955 L633.353,183.955 L640.36,194 L647.22,194 L639.331,182.73 C641.683,181.815333 643.487833,180.427 644.7455,178.565 C646.003167,176.703 646.632,174.481667 646.632,171.901 C646.632,169.385667 646.044,167.213333 644.868,165.384 C643.692,163.554667 642.0015,162.15 639.7965,161.17 C637.5915,160.19 635.002667,159.7 632.03,159.7 L632.03,159.7 L617.918,159.7 L617.918,194 L624.288,194 Z M631.736,178.761 L624.288,178.761 L624.288,165.09 L631.736,165.09 C634.512667,165.09 636.619667,165.678 638.057,166.854 C639.494333,168.03 640.213,169.712333 640.213,171.901 C640.213,174.089667 639.494333,175.780167 638.057,176.9725 C636.619667,178.164833 634.512667,178.761 631.736,178.761 L631.736,178.761 Z M679.762,194 L679.762,188.659 L660.407,188.659 L660.407,179.202 L676.969,179.202 L676.969,173.959 L660.407,173.959 L660.407,165.041 L679.076,165.041 L679.076,159.7 L654.037,159.7 L654.037,194 L679.762,194 Z M693.537,194 L693.537,184.004 L701.279,184.004 C701.867,184.004 702.308,183.987667 702.602,183.955 L702.602,183.955 L709.609,194 L716.469,194 L708.58,182.73 C710.932,181.815333 712.736833,180.427 713.9945,178.565 C715.252167,176.703 715.881,174.481667 715.881,171.901 C715.881,169.385667 715.293,167.213333 714.117,165.384 C712.941,163.554667 711.2505,162.15 709.0455,161.17 C706.8405,160.19 704.251667,159.7 701.279,159.7 L701.279,159.7 L687.167,159.7 L687.167,194 L693.537,194 Z M700.985,178.761 L693.537,178.761 L693.537,165.09 L700.985,165.09 C703.761667,165.09 705.868667,165.678 707.306,166.854 C708.743333,168.03 709.462,169.712333 709.462,171.901 C709.462,174.089667 708.743333,175.780167 707.306,176.9725 C705.868667,178.164833 703.761667,178.761 700.985,178.761 L700.985,178.761 Z M749.011,194 L749.011,188.659 L729.656,188.659 L729.656,179.202 L746.218,179.202 L746.218,173.959 L729.656,173.959 L729.656,165.041 L748.325,165.041 L748.325,159.7 L723.286,159.7 L723.286,194 L749.011,194 Z M785.234,194 C788.892667,194 792.143,193.2895 794.985,191.8685 C797.827,190.4475 800.032,188.4385 801.6,185.8415 C803.168,183.2445 803.952,180.247333 803.952,176.85 C803.952,173.452667 803.168,170.4555 801.6,167.8585 C800.032,165.2615 797.827,163.2525 794.985,161.8315 C792.143,160.4105 788.892667,159.7 785.234,159.7 L785.234,159.7 L770.24,159.7 L770.24,194 L785.234,194 Z M784.94,188.61 L776.61,188.61 L776.61,165.09 L784.94,165.09 C787.455333,165.09 789.6685,165.571833 791.5795,166.5355 C793.4905,167.499167 794.9605,168.871167 795.9895,170.6515 C797.0185,172.431833 797.533,174.498 797.533,176.85 C797.533,179.202 797.0185,181.268167 795.9895,183.0485 C794.9605,184.828833 793.4905,186.200833 791.5795,187.1645 C789.6685,188.128167 787.455333,188.61 784.94,188.61 L784.94,188.61 Z M817.384,194 L817.384,159.7 L811.014,159.7 L811.014,194 L817.384,194 Z M842.968,194.49 C845.450667,194.49 847.868,194.114333 850.22,193.363 C852.572,192.611667 854.63,191.533667 856.394,190.129 L856.394,190.129 L856.394,176.458 L850.367,176.458 L850.367,187.14 C848.341667,188.316 845.989667,188.904 843.311,188.904 C840.926333,188.904 838.794833,188.381333 836.9165,187.336 C835.038167,186.290667 833.568167,184.853333 832.5065,183.024 C831.444833,181.194667 830.914,179.136667 830.914,176.85 C830.914,174.498 831.444833,172.407333 832.5065,170.578 C833.568167,168.748667 835.038167,167.327667 836.9165,166.315 C838.794833,165.302333 840.942667,164.796 843.36,164.796 C847.051333,164.796 850.203667,166.102667 852.817,168.716 L852.817,168.716 L856.835,164.796 C855.234333,162.966667 853.258,161.578333 850.906,160.631 C848.554,159.683667 845.940667,159.21 843.066,159.21 C839.538,159.21 836.361167,159.9695 833.5355,161.4885 C830.709833,163.0075 828.496667,165.106333 826.896,167.785 C825.295333,170.463667 824.495,173.485333 824.495,176.85 C824.495,180.214667 825.295333,183.236333 826.896,185.915 C828.496667,188.593667 830.701667,190.6925 833.511,192.2115 C836.320333,193.7305 839.472667,194.49 842.968,194.49 Z" id="LADBIBLIOTEKETINSPIREREDIG" fill="#F37362" fill-rule="nonzero"></path>
    </g>
</svg>