<?xml version="1.0" encoding="UTF-8"?>
<svg width="252px" height="39px" viewBox="0 0 220 34" version="1.1" xmlns="http://www.w3.org/2000/svg" xmlns:xlink="http://www.w3.org/1999/xlink">
    <!-- Generator: Sketch 61.2 (89653) - https://sketch.com -->
    <title>Logo/Læsekompas logo w payoff mobile</title>
    <desc>Created with Sketch.</desc>
    <g id="Logo/Læsekompas-logo-w-payoff-mobile" stroke="none" stroke-width="1" fill="none" fill-rule="evenodd">
        <g id="Logo/Logotype-petroleum" transform="translate(25.000000, 5.700000)" fill="#00414B">
            <path d="M0.549783133,0.67826087 L2.70457831,0.67826087 L2.70457831,8.38330435 L7.3733012,8.38330435 L7.3733012,10.173913 L0.549783133,10.173913 L0.549783133,0.67826087 Z M20.2887711,6.49773913 C20.2887711,6.72382722 20.27547,6.92730344 20.2488675,7.10817391 L14.8219759,7.10817391 C14.9195186,7.56939361 15.1456368,7.93112912 15.5003373,8.1933913 C15.8550379,8.45565349 16.3072744,8.58678261 16.8570602,8.58678261 C17.5487263,8.58678261 18.1517083,8.35165453 18.6660241,7.8813913 L19.7700241,9.10226087 C19.424191,9.49113238 19.0007736,9.78504248 18.499759,9.984 C17.9987445,10.1829575 17.4378826,10.2824348 16.8171566,10.2824348 C16.1875631,10.2824348 15.6067496,10.1784358 15.0746988,9.97043478 C14.5426479,9.76243374 14.0904115,9.44591517 13.7179759,9.02086957 C13.16819,9.86191725 12.2548498,10.2824348 10.9779277,10.2824348 C10.0468387,10.2824348 9.31306292,10.0744369 8.77657831,9.65843478 C8.2400937,9.2424327 7.97185542,8.68626435 7.97185542,7.98991304 C7.97185542,7.3568664 8.22457579,6.84591499 8.7300241,6.45704348 C9.23547241,6.06817197 10.0069346,5.87373913 11.0444337,5.87373913 L12.6937831,5.87373913 C12.6937831,5.42156296 12.5563387,5.07113168 12.2814458,4.82243478 C12.0065528,4.57373789 11.5986533,4.4493913 11.0577349,4.4493913 C10.6764318,4.4493913 10.2995681,4.51043417 9.92713253,4.63252174 C9.55469693,4.75460931 9.2399049,4.91965113 8.98274699,5.12765217 L8.23787952,3.64904348 C8.62805014,3.36869425 9.09358766,3.15165294 9.63450602,2.99791304 C10.1754244,2.84417314 10.7340694,2.76730435 11.3104578,2.76730435 C12.5164398,2.76730435 13.3943105,3.11095309 13.9440964,3.79826087 C14.2721944,3.47269402 14.6623592,3.21947917 15.1146024,3.0386087 C15.5668456,2.85773823 16.0545516,2.76730435 16.5777349,2.76730435 C17.2605335,2.76730435 17.8856839,2.92104194 18.4532048,3.22852174 C19.0207257,3.53600154 19.4685285,3.97460585 19.7966265,4.54434783 C20.1247245,5.11408981 20.2887711,5.76521373 20.2887711,6.49773913 Z M16.5511325,4.368 C16.1166243,4.368 15.7353269,4.49912912 15.4072289,4.7613913 C15.0791309,5.02365349 14.8751811,5.39443239 14.7953735,5.87373913 L18.2802892,5.87373913 C18.209349,5.39443239 18.0120498,5.02365349 17.6883855,4.7613913 C17.3647213,4.49912912 16.9856407,4.368 16.5511325,4.368 Z M11.190747,8.85808696 C11.6607252,8.85808696 12.0287216,8.73147953 12.294747,8.47826087 C12.5607724,8.22504221 12.6937831,7.88139347 12.6937831,7.44730435 L12.6937831,7.10817391 L11.2705542,7.10817391 C10.4192729,7.10817391 9.99363855,7.38851894 9.99363855,7.94921739 C9.99363855,8.23861014 10.0978303,8.46243399 10.3062169,8.62069565 C10.5146035,8.77895731 10.8094439,8.85808696 11.190747,8.85808696 Z M24.0929157,10.2824348 C23.4987922,10.2824348 22.9179787,10.2078268 22.3504578,10.0586087 C21.7829369,9.90939056 21.3307005,9.72174026 20.9937349,9.49565217 L21.6853976,7.97634783 C22.0046281,8.18434887 22.3903592,8.35391239 22.8426024,8.48504348 C23.2948456,8.61617457 23.7382147,8.68173913 24.1727229,8.68173913 C25.0506068,8.68173913 25.4895422,8.46017613 25.4895422,8.01704348 C25.4895422,7.80904244 25.3698325,7.65982654 25.1304096,7.5693913 C24.8909868,7.47895607 24.5229904,7.40208727 24.0264096,7.33878261 C23.4411537,7.24834737 22.9578814,7.14434841 22.5765783,7.02678261 C22.1952752,6.9092168 21.8649653,6.70121888 21.5856386,6.40278261 C21.3063119,6.10434633 21.1666506,5.67930711 21.1666506,5.12765217 C21.1666506,4.66643248 21.2974445,4.25721918 21.5590361,3.9 C21.8206278,3.54278082 22.2019252,3.26469665 22.7029398,3.06573913 C23.2039543,2.86678161 23.795852,2.76730435 24.4786506,2.76730435 C24.9840989,2.76730435 25.4873228,2.82382552 25.9883373,2.93686957 C26.4893519,3.04991361 26.903902,3.20591205 27.232,3.40486957 L26.5403373,4.9106087 C25.9107438,4.54886776 25.2235218,4.368 24.4786506,4.368 C24.0352749,4.368 23.7027481,4.43130371 23.4810602,4.55791304 C23.2593724,4.68452237 23.1485301,4.84730335 23.1485301,5.04626087 C23.1485301,5.27234896 23.2682398,5.43060824 23.5076627,5.52104348 C23.7470855,5.61147871 24.1283829,5.6973909 24.6515663,5.77878261 C25.2368222,5.87826137 25.7156608,5.98452117 26.0880964,6.09756522 C26.460532,6.21060926 26.7841914,6.41634633 27.0590843,6.71478261 C27.3339773,7.01321888 27.4714217,7.42921472 27.4714217,7.96278261 C27.4714217,8.41495878 27.338411,8.81738954 27.0723855,9.17008696 C26.8063601,9.52278437 26.4184122,9.79634685 25.9085301,9.99078261 C25.3986481,10.1852184 24.7934493,10.2824348 24.0929157,10.2824348 Z M35.7580723,6.552 C35.7580723,6.57913057 35.7447712,6.76904171 35.7181687,7.12173913 L30.3045783,7.12173913 C30.402121,7.5739153 30.6326729,7.93112912 30.996241,8.1933913 C31.359809,8.45565349 31.8120455,8.58678261 32.3529639,8.58678261 C32.7253995,8.58678261 33.0557094,8.53026143 33.3439036,8.41721739 C33.6320978,8.30417335 33.9003361,8.12556644 34.1486265,7.8813913 L35.2526265,9.10226087 C34.5786954,9.88904741 33.5944161,10.2824348 32.299759,10.2824348 C31.4928152,10.2824348 30.7789911,10.1219146 30.1582651,9.80086957 C29.5375391,9.47982448 29.0587005,9.03443763 28.7217349,8.46469565 C28.3847694,7.89495367 28.2162892,7.24835144 28.2162892,6.52486957 C28.2162892,5.81043121 28.3825526,5.16608983 28.7150843,4.59182609 C29.0476161,4.01756235 29.5042863,3.56991465 30.0851084,3.24886957 C30.6659306,2.92782448 31.3154663,2.76730435 32.0337349,2.76730435 C32.7342686,2.76730435 33.3682863,2.92104194 33.9358072,3.22852174 C34.5033281,3.53600154 34.948914,3.97686669 35.2725783,4.55113043 C35.5962426,5.12539418 35.7580723,5.79234403 35.7580723,6.552 Z M32.0470361,4.368 C31.5770579,4.368 31.1824594,4.50365082 30.8632289,4.77495652 C30.5439984,5.04626223 30.348916,5.41704113 30.2779759,5.88730435 L33.8027952,5.88730435 C33.7318551,5.42608465 33.5367727,5.0575666 33.2175422,4.78173913 C32.8983117,4.50591166 32.5081469,4.368 32.0470361,4.368 Z M40.2139759,7.31165217 L39.2163855,8.31547826 L39.2163855,10.173913 L37.1413976,10.173913 L37.1413976,0.108521739 L39.2163855,0.108521739 L39.2163855,5.80591304 L42.2490602,2.87582609 L44.7230843,2.87582609 L41.7436145,5.96869565 L44.9891084,10.173913 L42.4751807,10.173913 L40.2139759,7.31165217 Z M49.3253012,10.2824348 C48.5715625,10.2824348 47.8954247,10.1219146 47.2968675,9.80086957 C46.6983103,9.47982448 46.2305559,9.03443763 45.8935904,8.46469565 C45.5566248,7.89495367 45.3881446,7.24835144 45.3881446,6.52486957 C45.3881446,5.80138769 45.5566248,5.15478546 45.8935904,4.58504348 C46.2305559,4.0153015 46.6983103,3.56991465 47.2968675,3.24886957 C47.8954247,2.92782448 48.5715625,2.76730435 49.3253012,2.76730435 C50.0790399,2.76730435 50.7529609,2.92782448 51.3470843,3.24886957 C51.9412078,3.56991465 52.4067453,4.0153015 52.7437108,4.58504348 C53.0806764,5.15478546 53.2491566,5.80138769 53.2491566,6.52486957 C53.2491566,7.24835144 53.0806764,7.89495367 52.7437108,8.46469565 C52.4067453,9.03443763 51.9412078,9.47982448 51.3470843,9.80086957 C50.7529609,10.1219146 50.0790399,10.2824348 49.3253012,10.2824348 Z M49.3253012,8.54608696 C49.8573521,8.54608696 50.2940706,8.36295835 50.6354699,7.99669565 C50.9768692,7.63043295 51.1475663,7.13982916 51.1475663,6.52486957 C51.1475663,5.90990997 50.9768692,5.41930618 50.6354699,5.05304348 C50.2940706,4.68678078 49.8573521,4.50365217 49.3253012,4.50365217 C48.7932504,4.50365217 48.354315,4.68678078 48.0084819,5.05304348 C47.6626489,5.41930618 47.4897349,5.90990997 47.4897349,6.52486957 C47.4897349,7.13982916 47.6626489,7.63043295 48.0084819,7.99669565 C48.354315,8.36295835 48.7932504,8.54608696 49.3253012,8.54608696 Z M63.797012,2.76730435 C64.692631,2.76730435 65.4042383,3.03634514 65.9318554,3.57443478 C66.4594725,4.11252443 66.7232771,4.91964679 66.7232771,5.99582609 L66.7232771,10.173913 L64.6482892,10.173913 L64.6482892,6.3213913 C64.6482892,5.7426058 64.5307964,5.31078403 64.2958072,5.02591304 C64.0608181,4.74104205 63.7260745,4.5986087 63.2915663,4.5986087 C62.803853,4.5986087 62.4181219,4.75912883 62.1343614,5.08017391 C61.850601,5.401219 61.7087229,5.8782577 61.7087229,6.51130435 L61.7087229,10.173913 L59.6337349,10.173913 L59.6337349,6.3213913 C59.6337349,5.17286382 59.1814985,4.5986087 58.277012,4.5986087 C57.7981663,4.5986087 57.4168689,4.75912883 57.1331084,5.08017391 C56.849348,5.401219 56.7074699,5.8782577 56.7074699,6.51130435 L56.7074699,10.173913 L54.6324819,10.173913 L54.6324819,2.87582609 L56.6143614,2.87582609 L56.6143614,3.71686957 C56.8803869,3.40938977 57.2062631,3.17426168 57.592,3.01147826 C57.9777369,2.84869484 58.4011543,2.76730435 58.8622651,2.76730435 C59.3677134,2.76730435 59.8243835,2.86904246 60.2322892,3.07252174 C60.6401948,3.27600102 60.9682879,3.57217197 61.2165783,3.96104348 C61.5092063,3.58121549 61.8794194,3.28730539 62.3272289,3.07930435 C62.7750384,2.87130331 63.2649612,2.76730435 63.797012,2.76730435 Z M72.8152289,2.76730435 C73.4802925,2.76730435 74.0854912,2.92330279 74.6308434,3.23530435 C75.1761955,3.54730591 75.6040466,3.98591022 75.9144096,4.55113043 C76.2247726,5.11635065 76.3799518,5.77425712 76.3799518,6.52486957 C76.3799518,7.27548201 76.2247726,7.93338848 75.9144096,8.4986087 C75.6040466,9.06382891 75.1761955,9.50243322 74.6308434,9.81443478 C74.0854912,10.1264363 73.4802925,10.2824348 72.8152289,10.2824348 C71.901875,10.2824348 71.1836171,9.98852468 70.6604337,9.40069565 L70.6604337,12.8055652 L68.5854458,12.8055652 L68.5854458,2.87582609 L70.5673253,2.87582609 L70.5673253,3.71686957 C71.0816411,3.08382292 71.8309348,2.76730435 72.8152289,2.76730435 Z M72.4560964,8.54608696 C72.9881472,8.54608696 73.4248658,8.36295835 73.7662651,7.99669565 C74.1076644,7.63043295 74.2783614,7.13982916 74.2783614,6.52486957 C74.2783614,5.90990997 74.1076644,5.41930618 73.7662651,5.05304348 C73.4248658,4.68678078 72.9881472,4.50365217 72.4560964,4.50365217 C71.9240455,4.50365217 71.487327,4.68678078 71.1459277,5.05304348 C70.8045284,5.41930618 70.6338313,5.90990997 70.6338313,6.52486957 C70.6338313,7.13982916 70.8045284,7.63043295 71.1459277,7.99669565 C71.487327,8.36295835 71.9240455,8.54608696 72.4560964,8.54608696 Z M80.6496386,2.76730435 C81.7580778,2.76730435 82.6093464,3.03634514 83.2034699,3.57443478 C83.7975933,4.11252443 84.0946506,4.92416849 84.0946506,6.0093913 L84.0946506,10.173913 L82.1526747,10.173913 L82.1526747,9.26504348 C81.7625041,9.94330774 81.0353788,10.2824348 79.9712771,10.2824348 C79.4214912,10.2824348 78.9448695,10.1874792 78.5413976,9.99756522 C78.1379257,9.80765122 77.8297842,9.54539298 77.6169639,9.21078261 C77.4041435,8.87617224 77.2977349,8.49634995 77.2977349,8.07130435 C77.2977349,7.39304009 77.5482385,6.85948021 78.049253,6.4706087 C78.5502676,6.08173719 79.3239466,5.88730435 80.3703133,5.88730435 L82.0196627,5.88730435 C82.0196627,5.42608465 81.8822182,5.07113168 81.6073253,4.82243478 C81.3324324,4.57373789 80.9200991,4.4493913 80.3703133,4.4493913 C79.9890101,4.4493913 79.6143633,4.51043417 79.2463614,4.63252174 C78.8783596,4.75460931 78.5657844,4.91965113 78.3086265,5.12765217 L77.563759,3.64904348 C77.9539297,3.36869425 78.421684,3.15165294 78.9670361,2.99791304 C79.5123883,2.84417314 80.0732501,2.76730435 80.6496386,2.76730435 Z M80.4900241,8.85808696 C80.8447247,8.85808696 81.1595167,8.77443562 81.4344096,8.60713043 C81.7093026,8.43982525 81.904385,8.19339293 82.0196627,7.86782609 L82.0196627,7.12173913 L80.5964337,7.12173913 C79.7451524,7.12173913 79.3195181,7.40660585 79.3195181,7.97634783 C79.3195181,8.24765353 79.4237098,8.46243399 79.6320964,8.62069565 C79.840483,8.77895731 80.126456,8.85808696 80.4900241,8.85808696 Z M88.3776386,10.2824348 C87.7835151,10.2824348 87.2027016,10.2078268 86.6351807,10.0586087 C86.0676598,9.90939056 85.6154234,9.72174026 85.2784578,9.49565217 L85.9701205,7.97634783 C86.289351,8.18434887 86.6750821,8.35391239 87.1273253,8.48504348 C87.5795685,8.61617457 88.0229376,8.68173913 88.4574458,8.68173913 C89.3353297,8.68173913 89.7742651,8.46017613 89.7742651,8.01704348 C89.7742651,7.80904244 89.6545554,7.65982654 89.4151325,7.5693913 C89.1757096,7.47895607 88.8077133,7.40208727 88.3111325,7.33878261 C87.7258766,7.24834737 87.2426043,7.14434841 86.8613012,7.02678261 C86.4799981,6.9092168 86.1496881,6.70121888 85.8703614,6.40278261 C85.5910347,6.10434633 85.4513735,5.67930711 85.4513735,5.12765217 C85.4513735,4.66643248 85.5821674,4.25721918 85.843759,3.9 C86.1053507,3.54278082 86.4866481,3.26469665 86.9876627,3.06573913 C87.4886772,2.86678161 88.0805749,2.76730435 88.7633735,2.76730435 C89.2688218,2.76730435 89.7720457,2.82382552 90.2730602,2.93686957 C90.7740748,3.04991361 91.1886249,3.20591205 91.5167229,3.40486957 L90.8250602,4.9106087 C90.1954667,4.54886776 89.5082447,4.368 88.7633735,4.368 C88.3199978,4.368 87.987471,4.43130371 87.7657831,4.55791304 C87.5440953,4.68452237 87.433253,4.84730335 87.433253,5.04626087 C87.433253,5.27234896 87.5529627,5.43060824 87.7923855,5.52104348 C88.0318084,5.61147871 88.4131058,5.6973909 88.9362892,5.77878261 C89.5215451,5.87826137 90.0003837,5.98452117 90.3728193,6.09756522 C90.7452549,6.21060926 91.0689143,6.41634633 91.3438072,6.71478261 C91.6187002,7.01321888 91.7561446,7.42921472 91.7561446,7.96278261 C91.7561446,8.41495878 91.6231339,8.81738954 91.3571084,9.17008696 C91.091083,9.52278437 90.7031351,9.79634685 90.193253,9.99078261 C89.6833709,10.1852184 89.0781722,10.2824348 88.3776386,10.2824348 Z" id="Læsekompas"></path>
        </g>
        <g id="Logo/Diblio-figur-petroleum" fill="#00414B">
            <g id="Diblio-figur">
                <path d="M0.342915328,22.5068956 L0.342915328,24.4607222 C0.342915328,24.9065711 0.706827737,25.2682378 1.15589343,25.2682378 L18.2246891,25.2682378 C18.6737547,25.2682378 19.0376672,24.9065711 19.0376672,24.4607222 L19.0376672,22.5068956 C19.0376672,22.0610467 18.6737547,21.69938 18.2246891,21.69938 L1.15589343,21.69938 C0.706827737,21.69938 0.342915328,22.0610467 0.342915328,22.5068956" id="Fill-1"></path>
                <path d="M0.342915328,16.8033227 L0.342915328,18.7570116 C0.342915328,19.2029982 0.706827737,19.5646649 1.15575474,19.5646649 L12.8672438,19.5646649 C13.3161708,19.5646649 13.6800832,19.2029982 13.6800832,18.7570116 L13.6800832,16.8033227 C13.6800832,16.357336 13.3161708,15.9956693 12.8672438,15.9956693 L1.15575474,15.9956693 C0.706827737,15.9956693 0.342915328,16.357336 0.342915328,16.8033227" id="Fill-4"></path>
                <path d="M0.342915328,28.2105511 L0.342915328,30.16424 C0.342915328,30.6102267 0.706827737,30.9718933 1.15575474,30.9718933 L15.5459664,30.9718933 C15.9948934,30.9718933 16.3588058,30.6102267 16.3588058,30.16424 L16.3588058,28.2105511 C16.3588058,27.7645644 15.9948934,27.4028978 15.5459664,27.4028978 L1.15575474,27.4028978 C0.706827737,27.4028978 0.342915328,27.7645644 0.342915328,28.2105511" id="Fill-6"></path>
                <path d="M7.0045927,13.917388 C3.14232263,13.917388 -2.77372263e-05,10.7957569 -2.77372263e-05,6.95864578 C-2.77372263e-05,3.12167244 3.14232263,4.13333333e-05 7.0045927,4.13333333e-05 C10.8670015,4.13333333e-05 14.0090745,3.12167244 14.0090745,6.95864578 C14.0090745,10.7957569 10.8670015,13.917388 7.0045927,13.917388 M7.0045927,3.49284578 C5.08087737,3.49284578 3.51580438,5.047668 3.51580438,6.95864578 C3.51580438,8.86976133 5.08087737,10.4245836 7.0045927,10.4245836 C8.92816934,10.4245836 10.4932423,8.86976133 10.4932423,6.95864578 C10.4932423,5.047668 8.92816934,3.49284578 7.0045927,3.49284578" id="Fill-8"></path>
            </g>
        </g>
        <path d="M28.54,25 L28.54,24.34 L26.344,24.34 L26.344,20.8 L25.564,20.8 L25.564,25 L28.54,25 Z M29.368,25 L29.782,24.028 L31.882,24.028 L32.302,25 L33.118,25 L31.222,20.8 L30.454,20.8 L28.564,25 L29.368,25 Z M31.624,23.416 L30.046,23.416 L30.832,21.58 L31.624,23.416 Z M35.488,25 C35.936,25 36.334,24.913 36.682,24.739 C37.03,24.565 37.3,24.319 37.492,24.001 C37.684,23.683 37.78,23.316 37.78,22.9 C37.78,22.484 37.684,22.117 37.492,21.799 C37.3,21.481 37.03,21.235 36.682,21.061 C36.334,20.887 35.936,20.8 35.488,20.8 L35.488,20.8 L33.652,20.8 L33.652,25 L35.488,25 Z M35.452,24.34 L34.432,24.34 L34.432,21.46 L35.452,21.46 C35.76,21.46 36.031,21.519 36.265,21.637 C36.499,21.755 36.679,21.923 36.805,22.141 C36.931,22.359 36.994,22.612 36.994,22.9 C36.994,23.188 36.931,23.441 36.805,23.659 C36.679,23.877 36.499,24.045 36.265,24.163 C36.031,24.281 35.76,24.34 35.452,24.34 L35.452,24.34 Z M42.352,25 C42.888,25 43.296,24.901 43.576,24.703 C43.856,24.505 43.996,24.224 43.996,23.86 C43.996,23.596 43.928,23.375 43.792,23.197 C43.656,23.019 43.472,22.892 43.24,22.816 C43.408,22.728 43.54,22.604 43.636,22.444 C43.732,22.284 43.78,22.1 43.78,21.892 C43.78,21.552 43.646,21.285 43.378,21.091 C43.11,20.897 42.728,20.8 42.232,20.8 L42.232,20.8 L40.264,20.8 L40.264,25 L42.352,25 Z M42.148,22.57 L41.044,22.57 L41.044,21.412 L42.148,21.412 C42.42,21.412 42.629,21.461 42.775,21.559 C42.921,21.657 42.994,21.802 42.994,21.994 C42.994,22.182 42.921,22.325 42.775,22.423 C42.629,22.521 42.42,22.57 42.148,22.57 L42.148,22.57 Z M42.304,24.388 L41.044,24.388 L41.044,23.176 L42.304,23.176 C42.908,23.176 43.21,23.378 43.21,23.782 C43.21,24.186 42.908,24.388 42.304,24.388 L42.304,24.388 Z M45.61,25 L45.61,20.8 L44.83,20.8 L44.83,25 L45.61,25 Z M48.832,25 C49.368,25 49.776,24.901 50.056,24.703 C50.336,24.505 50.476,24.224 50.476,23.86 C50.476,23.596 50.408,23.375 50.272,23.197 C50.136,23.019 49.952,22.892 49.72,22.816 C49.888,22.728 50.02,22.604 50.116,22.444 C50.212,22.284 50.26,22.1 50.26,21.892 C50.26,21.552 50.126,21.285 49.858,21.091 C49.59,20.897 49.208,20.8 48.712,20.8 L48.712,20.8 L46.744,20.8 L46.744,25 L48.832,25 Z M48.628,22.57 L47.524,22.57 L47.524,21.412 L48.628,21.412 C48.9,21.412 49.109,21.461 49.255,21.559 C49.401,21.657 49.474,21.802 49.474,21.994 C49.474,22.182 49.401,22.325 49.255,22.423 C49.109,22.521 48.9,22.57 48.628,22.57 L48.628,22.57 Z M48.784,24.388 L47.524,24.388 L47.524,23.176 L48.784,23.176 C49.388,23.176 49.69,23.378 49.69,23.782 C49.69,24.186 49.388,24.388 48.784,24.388 L48.784,24.388 Z M54.286,25 L54.286,24.34 L52.09,24.34 L52.09,20.8 L51.31,20.8 L51.31,25 L54.286,25 Z M55.684,25 L55.684,20.8 L54.904,20.8 L54.904,25 L55.684,25 Z M58.78,25.06 C59.208,25.06 59.594,24.967 59.938,24.781 C60.282,24.595 60.552,24.338 60.748,24.01 C60.944,23.682 61.042,23.312 61.042,22.9 C61.042,22.488 60.944,22.118 60.748,21.79 C60.552,21.462 60.282,21.205 59.938,21.019 C59.594,20.833 59.208,20.74 58.78,20.74 C58.352,20.74 57.966,20.833 57.622,21.019 C57.278,21.205 57.008,21.463 56.812,21.793 C56.616,22.123 56.518,22.492 56.518,22.9 C56.518,23.308 56.616,23.677 56.812,24.007 C57.008,24.337 57.278,24.595 57.622,24.781 C57.966,24.967 58.352,25.06 58.78,25.06 Z M58.78,24.376 C58.5,24.376 58.248,24.313 58.024,24.187 C57.8,24.061 57.624,23.885 57.496,23.659 C57.368,23.433 57.304,23.18 57.304,22.9 C57.304,22.62 57.368,22.367 57.496,22.141 C57.624,21.915 57.8,21.739 58.024,21.613 C58.248,21.487 58.5,21.424 58.78,21.424 C59.06,21.424 59.312,21.487 59.536,21.613 C59.76,21.739 59.936,21.915 60.064,22.141 C60.192,22.367 60.256,22.62 60.256,22.9 C60.256,23.18 60.192,23.433 60.064,23.659 C59.936,23.885 59.76,24.061 59.536,24.187 C59.312,24.313 59.06,24.376 58.78,24.376 Z M63.502,25 L63.502,21.46 L64.894,21.46 L64.894,20.8 L61.33,20.8 L61.33,21.46 L62.722,21.46 L62.722,25 L63.502,25 Z M68.632,25 L68.632,24.346 L66.262,24.346 L66.262,23.188 L68.29,23.188 L68.29,22.546 L66.262,22.546 L66.262,21.454 L68.548,21.454 L68.548,20.8 L65.482,20.8 L65.482,25 L68.632,25 Z M70.282,25 L70.282,23.926 L70.948,23.242 L72.43,25 L73.342,25 L71.47,22.678 L73.234,20.8 L72.358,20.8 L70.282,22.954 L70.282,20.8 L69.502,20.8 L69.502,25 L70.282,25 Z M77.026,25 L77.026,24.346 L74.656,24.346 L74.656,23.188 L76.684,23.188 L76.684,22.546 L74.656,22.546 L74.656,21.454 L76.942,21.454 L76.942,20.8 L73.876,20.8 L73.876,25 L77.026,25 Z M79.528,25 L79.528,21.46 L80.92,21.46 L80.92,20.8 L77.356,20.8 L77.356,21.46 L78.748,21.46 L78.748,25 L79.528,25 Z M83.944,25 L83.944,20.8 L83.164,20.8 L83.164,25 L83.944,25 Z M85.852,25 L85.852,22.156 L88.168,25 L88.81,25 L88.81,20.8 L88.036,20.8 L88.036,23.644 L85.72,20.8 L85.078,20.8 L85.078,25 L85.852,25 Z M91.24,25.06 C91.608,25.06 91.92,25.004 92.176,24.892 C92.432,24.78 92.623,24.63 92.749,24.442 C92.875,24.254 92.938,24.044 92.938,23.812 C92.938,23.54 92.867,23.324 92.725,23.164 C92.583,23.004 92.412,22.885 92.212,22.807 C92.012,22.729 91.756,22.654 91.444,22.582 C91.216,22.526 91.036,22.476 90.904,22.432 C90.772,22.388 90.663,22.328 90.577,22.252 C90.491,22.176 90.448,22.078 90.448,21.958 C90.448,21.786 90.523,21.648 90.673,21.544 C90.823,21.44 91.052,21.388 91.36,21.388 C91.548,21.388 91.742,21.416 91.942,21.472 C92.142,21.528 92.334,21.61 92.518,21.718 L92.518,21.718 L92.764,21.112 C92.584,20.992 92.37,20.9 92.122,20.836 C91.874,20.772 91.622,20.74 91.366,20.74 C90.998,20.74 90.687,20.796 90.433,20.908 C90.179,21.02 89.989,21.171 89.863,21.361 C89.737,21.551 89.674,21.762 89.674,21.994 C89.674,22.27 89.745,22.489 89.887,22.651 C90.029,22.813 90.199,22.932 90.397,23.008 C90.595,23.084 90.854,23.16 91.174,23.236 C91.402,23.292 91.582,23.342 91.714,23.386 C91.846,23.43 91.955,23.491 92.041,23.569 C92.127,23.647 92.17,23.746 92.17,23.866 C92.17,24.03 92.093,24.162 91.939,24.262 C91.785,24.362 91.552,24.412 91.24,24.412 C90.988,24.412 90.737,24.369 90.487,24.283 C90.237,24.197 90.026,24.086 89.854,23.95 L89.854,23.95 L89.584,24.556 C89.76,24.708 89.999,24.83 90.301,24.922 C90.603,25.014 90.916,25.06 91.24,25.06 Z M94.492,25 L94.492,23.788 L95.44,23.788 C95.804,23.788 96.121,23.728 96.391,23.608 C96.661,23.488 96.868,23.315 97.012,23.089 C97.156,22.863 97.228,22.598 97.228,22.294 C97.228,21.986 97.156,21.72 97.012,21.496 C96.868,21.272 96.661,21.1 96.391,20.98 C96.121,20.86 95.804,20.8 95.44,20.8 L95.44,20.8 L93.712,20.8 L93.712,25 L94.492,25 Z M95.404,23.128 L94.492,23.128 L94.492,21.46 L95.404,21.46 C95.744,21.46 96.002,21.532 96.178,21.676 C96.354,21.82 96.442,22.026 96.442,22.294 C96.442,22.562 96.354,22.768 96.178,22.912 C96.002,23.056 95.744,23.128 95.404,23.128 L95.404,23.128 Z M98.848,25 L98.848,20.8 L98.068,20.8 L98.068,25 L98.848,25 Z M100.762,25 L100.762,23.776 L101.776,23.7753333 C101.816,23.7744444 101.848,23.7726667 101.872,23.77 L101.872,23.77 L102.73,25 L103.57,25 L102.604,23.62 C102.892,23.508 103.113,23.338 103.267,23.11 C103.421,22.882 103.498,22.61 103.498,22.294 C103.498,21.986 103.426,21.72 103.282,21.496 C103.138,21.272 102.931,21.1 102.661,20.98 C102.391,20.86 102.074,20.8 101.71,20.8 L101.71,20.8 L99.982,20.8 L99.982,25 L100.762,25 Z M101.674,23.134 L100.762,23.134 L100.762,21.46 L101.674,21.46 C102.014,21.46 102.272,21.532 102.448,21.676 C102.624,21.82 102.712,22.026 102.712,22.294 C102.712,22.562 102.624,22.769 102.448,22.915 C102.272,23.061 102.014,23.134 101.674,23.134 L101.674,23.134 Z M107.518,25 L107.518,24.346 L105.148,24.346 L105.148,23.188 L107.176,23.188 L107.176,22.546 L105.148,22.546 L105.148,21.454 L107.434,21.454 L107.434,20.8 L104.368,20.8 L104.368,25 L107.518,25 Z M109.168,25 L109.168,23.776 L110.182,23.7753333 C110.222,23.7744444 110.254,23.7726667 110.278,23.77 L110.278,23.77 L111.136,25 L111.976,25 L111.01,23.62 C111.298,23.508 111.519,23.338 111.673,23.11 C111.827,22.882 111.904,22.61 111.904,22.294 C111.904,21.986 111.832,21.72 111.688,21.496 C111.544,21.272 111.337,21.1 111.067,20.98 C110.797,20.86 110.48,20.8 110.116,20.8 L110.116,20.8 L108.388,20.8 L108.388,25 L109.168,25 Z M110.08,23.134 L109.168,23.134 L109.168,21.46 L110.08,21.46 C110.42,21.46 110.678,21.532 110.854,21.676 C111.03,21.82 111.118,22.026 111.118,22.294 C111.118,22.562 111.03,22.769 110.854,22.915 C110.678,23.061 110.42,23.134 110.08,23.134 L110.08,23.134 Z M115.924,25 L115.924,24.346 L113.554,24.346 L113.554,23.188 L115.582,23.188 L115.582,22.546 L113.554,22.546 L113.554,21.454 L115.84,21.454 L115.84,20.8 L112.774,20.8 L112.774,25 L115.924,25 Z M120.286,25 C120.734,25 121.132,24.913 121.48,24.739 C121.828,24.565 122.098,24.319 122.29,24.001 C122.482,23.683 122.578,23.316 122.578,22.9 C122.578,22.484 122.482,22.117 122.29,21.799 C122.098,21.481 121.828,21.235 121.48,21.061 C121.132,20.887 120.734,20.8 120.286,20.8 L120.286,20.8 L118.45,20.8 L118.45,25 L120.286,25 Z M120.25,24.34 L119.23,24.34 L119.23,21.46 L120.25,21.46 C120.558,21.46 120.829,21.519 121.063,21.637 C121.297,21.755 121.477,21.923 121.603,22.141 C121.729,22.359 121.792,22.612 121.792,22.9 C121.792,23.188 121.729,23.441 121.603,23.659 C121.477,23.877 121.297,24.045 121.063,24.163 C120.829,24.281 120.558,24.34 120.25,24.34 L120.25,24.34 Z M124.186,25 L124.186,20.8 L123.406,20.8 L123.406,25 L124.186,25 Z M127.282,25.06 C127.586,25.06 127.882,25.014 128.17,24.922 C128.458,24.83 128.71,24.698 128.926,24.526 L128.926,24.526 L128.926,22.852 L128.188,22.852 L128.188,24.16 C127.94,24.304 127.652,24.376 127.324,24.376 C127.032,24.376 126.771,24.312 126.541,24.184 C126.311,24.056 126.131,23.88 126.001,23.656 C125.871,23.432 125.806,23.18 125.806,22.9 C125.806,22.612 125.871,22.356 126.001,22.132 C126.131,21.908 126.311,21.734 126.541,21.61 C126.771,21.486 127.034,21.424 127.33,21.424 C127.782,21.424 128.168,21.584 128.488,21.904 L128.488,21.904 L128.98,21.424 C128.784,21.2 128.542,21.03 128.254,20.914 C127.966,20.798 127.646,20.74 127.294,20.74 C126.862,20.74 126.473,20.833 126.127,21.019 C125.781,21.205 125.51,21.462 125.314,21.79 C125.118,22.118 125.02,22.488 125.02,22.9 C125.02,23.312 125.118,23.682 125.314,24.01 C125.51,24.338 125.78,24.595 126.124,24.781 C126.468,24.967 126.854,25.06 127.282,25.06 Z" id="LADBIBLIOTEKETINSPIREREDIG" fill="#F37362" fill-rule="nonzero"></path>
    </g>
</svg>