<?xml version="1.0" encoding="UTF-8"?>
<svg width="856px" height="156px" viewBox="0 0 960 156" version="1.1" xmlns="http://www.w3.org/2000/svg" xmlns:xlink="http://www.w3.org/1999/xlink">
    <!-- Generator: Sketch 61.2 (89653) - https://sketch.com -->
    <title>Logo/Læsekompas logo w payoff - large</title>
    <desc>Created with Sketch.</desc>
    <g id="Logo/Læsekompas-logo-w-payoff---large" stroke="none" stroke-width="1" fill="none" fill-rule="evenodd">
        <g id="Logo/Diblio-figur-petroleum" fill="#00414B">
            <g id="Diblio-figur">
                <path d="M1.47995036,97.2878711 L1.47995036,105.733444 C1.47995036,107.660662 3.05051971,109.223996 4.9885927,109.223996 L78.6539212,109.223996 C80.5919942,109.223996 82.1625635,107.660662 82.1625635,105.733444 L82.1625635,97.2878711 C82.1625635,95.3606533 80.5919942,93.79732 78.6539212,93.79732 L4.9885927,93.79732 C3.05051971,93.79732 1.47995036,95.3606533 1.47995036,97.2878711" id="Fill-1"></path>
                <path d="M1.47995036,72.6337173 L1.47995036,81.0786951 C1.47995036,83.0065084 3.05051971,84.5698418 4.98799416,84.5698418 L55.5323153,84.5698418 C57.4697898,84.5698418 59.0403591,83.0065084 59.0403591,81.0786951 L59.0403591,72.6337173 C59.0403591,70.705904 57.4697898,69.1425707 55.5323153,69.1425707 L4.98799416,69.1425707 C3.05051971,69.1425707 1.47995036,70.705904 1.47995036,72.6337173" id="Fill-4"></path>
                <path d="M1.47995036,121.942382 L1.47995036,130.38736 C1.47995036,132.315173 3.05051971,133.878507 4.98799416,133.878507 L67.0931182,133.878507 C69.0305927,133.878507 70.601162,132.315173 70.601162,130.38736 L70.601162,121.942382 C70.601162,120.014569 69.0305927,118.451236 67.0931182,118.451236 L4.98799416,118.451236 C3.05051971,118.451236 1.47995036,120.014569 1.47995036,121.942382" id="Fill-6"></path>
                <path d="M30.2303474,60.159032 C13.5616029,60.159032 -0.000119708029,46.6655298 -0.000119708029,30.0793076 C-0.000119708029,13.4936809 13.5616029,0.000178666667 30.2303474,0.000178666667 C46.8996905,0.000178666667 60.4602161,13.4936809 60.4602161,30.0793076 C60.4602161,46.6655298 46.8996905,60.159032 30.2303474,60.159032 M30.2303474,15.0981076 C21.9279971,15.0981076 15.1734715,21.818952 15.1734715,30.0793076 C15.1734715,38.3402587 21.9279971,45.0611031 30.2303474,45.0611031 C38.5320993,45.0611031 45.2866248,38.3402587 45.2866248,30.0793076 C45.2866248,21.818952 38.5320993,15.0981076 30.2303474,15.0981076" id="Fill-8"></path>
            </g>
        </g>
        <g id="Logo/Logotype-petroleum" transform="translate(117.000000, -4.500000)" fill="#00414B">
            <path d="M4.00375712,4.9129931 L19.695902,4.9129931 L19.695902,60.7245947 L53.6955492,60.7245947 L53.6955492,73.6948964 L4.00375712,73.6948964 L4.00375712,4.9129931 Z M147.751553,47.0664739 C147.751553,48.7041464 147.654689,50.1780296 147.460958,51.4881676 L107.94,51.4881676 C108.650348,54.8290197 110.297038,57.4492564 112.88012,59.3489566 C115.463202,61.2486568 118.756582,62.1984926 122.76036,62.1984926 C127.797369,62.1984926 132.188543,60.4953387 135.934012,57.0889798 L143.973815,65.9323673 C141.45531,68.7491641 138.371802,70.8781065 134.723198,72.3192584 C131.074595,73.7604102 126.990158,74.4809753 122.469764,74.4809753 C117.884794,74.4809753 113.65506,73.7276573 109.780437,72.2209985 C105.905814,70.7143398 102.612434,68.4216326 99.9001979,65.3428082 C95.8964207,71.4349501 89.2450843,74.4809753 79.945989,74.4809753 C73.1653987,74.4809753 67.8217279,72.9743392 63.9148163,69.9610217 C60.0079048,66.9477042 58.0544783,62.9190901 58.0544783,57.8750587 C58.0544783,53.2895755 59.8948966,49.5884911 63.5757885,46.7716943 C67.2566804,43.9548975 72.8747995,42.5465202 80.4303145,42.5465202 L92.4415858,42.5465202 C92.4415858,39.2711751 91.4406566,36.7328207 89.438768,34.9313809 C87.4368794,33.1299411 84.4663796,32.2292347 80.5271796,32.2292347 C77.7503664,32.2292347 75.0058829,32.6713997 72.2936468,33.5557428 C69.5814106,34.440086 67.2889597,35.6355691 65.4162252,37.1422278 L59.9917801,26.4319029 C62.8331703,24.4011889 66.2234146,22.8290468 70.1626147,21.7154295 C74.1018148,20.6018121 78.170108,20.0450118 82.3676163,20.0450118 C91.1500952,20.0450118 97.5431273,22.5342368 101.546904,27.5127613 C103.936255,25.1545129 106.777603,23.3203471 110.071033,22.0102091 C113.364462,20.700071 116.916147,20.0450118 120.726193,20.0450118 C125.698625,20.0450118 130.251239,21.1586125 134.384171,23.3858471 C138.517102,25.6130818 141.778194,28.7901189 144.167545,32.9170537 C146.556896,37.0439886 147.751553,41.7604148 147.751553,47.0664739 Z M120.532462,31.6396755 C117.368187,31.6396755 114.591415,32.5895114 112.202065,34.4892115 C109.812714,36.3889117 108.327464,39.0746544 107.74627,42.5465202 L133.124924,42.5465202 C132.608308,39.0746544 131.17149,36.3889117 128.814428,34.4892115 C126.457365,32.5895114 123.696738,31.6396755 120.532462,31.6396755 Z M81.4958305,64.1636898 C84.9184142,64.1636898 87.5983216,63.246607 89.5356331,61.4124137 C91.4729446,59.5782204 92.4415858,57.0889955 92.4415858,53.9446642 L92.4415858,51.4881676 L82.077021,51.4881676 C75.8776242,51.4881676 72.7779722,53.5188511 72.7779722,57.5802791 C72.7779722,59.6764999 73.5367412,61.2977715 75.0543019,62.4441422 C76.5718626,63.590513 78.7190173,64.1636898 81.4958305,64.1636898 Z M175.454969,74.4809753 C171.128307,74.4809753 166.898574,73.9405515 162.765642,72.8596876 C158.632711,71.7788237 155.339331,70.4195759 152.885403,68.7819033 L157.922388,57.7767988 C160.247162,59.2834576 163.056221,60.5116935 166.349651,61.4615436 C169.64308,62.4113937 172.871884,62.8863116 176.03616,62.8863116 C182.429288,62.8863116 185.625804,61.2814166 185.625804,58.0715784 C185.625804,56.5649196 184.754027,55.484072 183.010447,54.8290029 C181.266866,54.1739339 178.586959,53.6171336 174.970644,53.1585853 C170.708559,52.5035163 167.189162,51.7501982 164.412349,50.8986085 C161.635536,50.0470187 159.230077,48.5403826 157.1959,46.3786548 C155.161723,44.2169271 154.144649,41.1381488 154.144649,37.1422278 C154.144649,33.8013758 155.097146,30.8372329 157.002169,28.2497103 C158.907192,25.6621877 161.683964,23.6478806 165.332567,22.2067288 C168.981171,20.7655769 173.291624,20.0450118 178.264057,20.0450118 C181.944949,20.0450118 185.609642,20.4544238 189.258245,21.2732601 C192.906848,22.0920964 195.92578,23.2220735 198.315131,24.6632253 L193.278146,35.57007 C188.693176,32.9497939 183.688529,31.6396755 178.264057,31.6396755 C175.035205,31.6396755 172.613601,32.098217 170.999175,33.0153136 C169.384749,33.9324102 168.577548,35.1115168 168.577548,36.5526686 C168.577548,38.1903412 169.449325,39.3366948 171.192905,39.9917638 C172.936486,40.6468328 175.713257,41.2691391 179.523303,41.8587012 C183.785389,42.5792771 187.272497,43.3489717 189.984733,44.1678079 C192.696969,44.9866442 195.053996,46.4769039 197.055885,48.6386316 C199.057773,50.8003594 200.058703,53.8136317 200.058703,57.6785389 C200.058703,60.9538841 199.090061,63.8688975 197.15275,66.4236667 C195.215438,68.9784358 192.390235,70.9599899 188.677054,72.3683883 C184.963874,73.7767867 180.556556,74.4809753 175.454969,74.4809753 Z M260.405655,47.4595133 C260.405655,47.656034 260.308791,49.0316583 260.11506,51.5864275 L220.690967,51.5864275 C221.401315,54.8617726 223.080293,57.4492564 225.727952,59.3489566 C228.375611,61.2486568 231.668991,62.1984926 235.608191,62.1984926 C238.320427,62.1984926 240.725887,61.7890806 242.824641,60.9702443 C244.923395,60.151408 246.876821,58.8576661 248.684979,57.0889798 L256.724781,65.9323673 C251.816925,71.6314678 244.64898,74.4809753 235.220731,74.4809753 C229.344219,74.4809753 224.145845,73.3182453 219.625451,70.9927502 C215.105058,68.6672552 211.617949,65.4410887 209.164021,61.3141538 C206.710093,57.187219 205.483148,52.5035458 205.483148,47.2629936 C205.483148,42.0879483 206.693949,37.4206515 209.115589,33.2609633 C211.537228,29.101275 214.862896,25.858732 219.092693,23.5332369 C223.32249,21.2077419 228.052688,20.0450118 233.283429,20.0450118 C238.385016,20.0450118 243.002206,21.1586125 247.135137,23.3858471 C251.268068,25.6130818 254.513017,28.8064954 256.870079,32.9661837 C259.227141,37.125872 260.405655,41.9569335 260.405655,47.4595133 Z M233.380294,31.6396755 C229.957711,31.6396755 227.084075,32.6222643 224.759301,34.5874714 C222.434527,36.5526785 221.013853,39.2384212 220.497237,42.6447801 L246.166486,42.6447801 C245.64987,39.3039281 244.229196,36.6345618 241.904422,34.6366013 C239.579648,32.6386408 236.738301,31.6396755 233.380294,31.6396755 Z M292.855461,52.9620656 L285.590579,60.2332954 L285.590579,73.6948964 L270.479624,73.6948964 L270.479624,0.786078895 L285.590579,0.786078895 L285.590579,42.0552209 L307.67582,20.8310907 L325.692727,20.8310907 L303.994946,43.2343392 L327.630028,73.6948964 L309.322526,73.6948964 L292.855461,52.9620656 Z M359.208048,74.4809753 C353.718999,74.4809753 348.795073,73.3182453 344.436122,70.9927502 C340.077171,68.6672552 336.670783,65.4410887 334.216855,61.3141538 C331.762927,57.187219 330.535981,52.5035458 330.535981,47.2629936 C330.535981,42.0224414 331.762927,37.3387682 334.216855,33.2118333 C336.670783,29.0848985 340.077171,25.858732 344.436122,23.5332369 C348.795073,21.2077419 353.718999,20.0450118 359.208048,20.0450118 C364.697098,20.0450118 369.60488,21.2077419 373.931542,23.5332369 C378.258205,25.858732 381.648449,29.0848985 384.102377,33.2118333 C386.556305,37.3387682 387.78325,42.0224414 387.78325,47.2629936 C387.78325,52.5035458 386.556305,57.187219 384.102377,61.3141538 C381.648449,65.4410887 378.258205,68.6672552 373.931542,70.9927502 C369.60488,73.3182453 364.697098,74.4809753 359.208048,74.4809753 Z M359.208048,61.903713 C363.082671,61.903713 366.263043,60.5772181 368.74926,57.9241886 C371.235476,55.2711591 372.478566,51.7174629 372.478566,47.2629936 C372.478566,42.8085242 371.235476,39.2548281 368.74926,36.6017986 C366.263043,33.948769 363.082671,32.6222742 359.208048,32.6222742 C355.333425,32.6222742 352.136909,33.948769 349.618404,36.6017986 C347.099899,39.2548281 345.840666,42.8085242 345.840666,47.2629936 C345.840666,51.7174629 347.099899,55.2711591 349.618404,57.9241886 C352.136909,60.5772181 355.333425,61.903713 359.208048,61.903713 Z M464.597268,20.0450118 C471.11955,20.0450118 476.301781,21.9938129 480.144115,25.8914736 C483.98645,29.7891343 485.907588,35.6355376 485.907588,43.430859 L485.907588,73.6948964 L470.796634,73.6948964 L470.796634,45.7890957 C470.796634,41.5966539 469.941001,38.4687463 468.229709,36.4052788 C466.518417,34.3418114 464.08067,33.3100932 460.916395,33.3100932 C457.364657,33.3100932 454.555597,34.4728233 452.489132,36.7983183 C450.422666,39.1238133 449.389449,42.5792506 449.389449,47.1647337 L449.389449,73.6948964 L434.278494,73.6948964 L434.278494,45.7890957 C434.278494,37.4697191 430.985114,33.3100932 424.398255,33.3100932 C420.911094,33.3100932 418.134323,34.4728233 416.067857,36.7983183 C414.001392,39.1238133 412.968174,42.5792506 412.968174,47.1647337 L412.968174,73.6948964 L397.85722,73.6948964 L397.85722,20.8310907 L412.290119,20.8310907 L412.290119,26.9232022 C414.22743,24.6959675 416.600601,22.9928136 419.409703,21.8136893 C422.218805,20.6345651 425.302312,20.0450118 428.660319,20.0450118 C432.341211,20.0450118 435.666879,20.7819534 438.637423,22.2558587 C441.607968,23.729764 443.997283,25.8750829 445.80544,28.6918797 C447.936483,25.9405898 450.632534,23.8116474 453.893675,22.3049887 C457.154816,20.7983299 460.722645,20.0450118 464.597268,20.0450118 Z M530.2718,20.0450118 C535.115079,20.0450118 539.522397,21.1749889 543.493885,23.4349771 C547.465374,25.6949652 550.58117,28.8720023 552.841367,32.9661837 C555.101563,37.0603651 556.231645,41.8259207 556.231645,47.2629936 C556.231645,52.7000665 555.101563,57.4656221 552.841367,61.5598035 C550.58117,65.6539849 547.465374,68.831022 543.493885,71.0910101 C539.522397,73.3509982 535.115079,74.4809753 530.2718,74.4809753 C523.620364,74.4809753 518.389701,72.3520329 514.579655,68.0940843 L514.579655,92.7573096 L499.468701,92.7573096 L499.468701,20.8310907 L513.9016,20.8310907 L513.9016,26.9232022 C517.647069,22.337719 523.103748,20.0450118 530.2718,20.0450118 Z M527.656443,61.903713 C531.531066,61.903713 534.711438,60.5772181 537.197654,57.9241886 C539.683871,55.2711591 540.92696,51.7174629 540.92696,47.2629936 C540.92696,42.8085242 539.683871,39.2548281 537.197654,36.6017986 C534.711438,33.948769 531.531066,32.6222742 527.656443,32.6222742 C523.78182,32.6222742 520.601448,33.948769 518.115231,36.6017986 C515.629015,39.2548281 514.385925,42.8085242 514.385925,47.2629936 C514.385925,51.7174629 515.629015,55.2711591 518.115231,57.9241886 C520.601448,60.5772181 523.78182,61.903713 527.656443,61.903713 Z M587.325339,20.0450118 C595.397471,20.0450118 601.596774,21.9938129 605.923437,25.8914736 C610.250099,29.7891343 612.413398,35.6682906 612.413398,43.5291188 L612.413398,73.6948964 L598.271095,73.6948964 L598.271095,67.1114857 C595.429704,72.0245033 590.134466,74.4809753 582.38522,74.4809753 C578.381442,74.4809753 574.910478,73.7931632 571.972222,72.4175182 C569.033966,71.0418733 566.789948,69.1422016 565.240098,66.7184462 C563.690249,64.2946909 562.915336,61.5434422 562.915336,58.4646178 C562.915336,53.5516002 564.73961,49.6867509 568.388214,46.8699541 C572.036817,44.0531573 577.67108,42.6447801 585.291172,42.6447801 L597.302444,42.6447801 C597.302444,39.3039281 596.301514,36.7328207 594.299626,34.9313809 C592.297737,33.1299411 589.294949,32.2292347 585.291172,32.2292347 C582.514359,32.2292347 579.78602,32.6713997 577.106072,33.5557428 C574.426124,34.440086 572.149818,35.6355691 570.277083,37.1422278 L564.852638,26.4319029 C567.694028,24.4011889 571.100417,22.8290468 575.071905,21.7154295 C579.043394,20.6018121 583.127831,20.0450118 587.325339,20.0450118 Z M586.162958,64.1636898 C588.74604,64.1636898 591.038491,63.5577601 593.04038,62.3458824 C595.042268,61.1340047 596.462942,59.3489684 597.302444,56.9907199 L597.302444,51.5864275 L586.937879,51.5864275 C580.738482,51.5864275 577.63883,53.649864 577.63883,57.7767988 C577.63883,59.7420059 578.397599,61.2977715 579.91516,62.4441422 C581.43272,63.590513 583.515299,64.1636898 586.162958,64.1636898 Z M643.603957,74.4809753 C639.277295,74.4809753 635.047562,73.9405515 630.91463,72.8596876 C626.781699,71.7788237 623.488319,70.4195759 621.034391,68.7819033 L626.071376,57.7767988 C628.39615,59.2834576 631.205209,60.5116935 634.498639,61.4615436 C637.792068,62.4113937 641.020873,62.8863116 644.185148,62.8863116 C650.578276,62.8863116 653.774792,61.2814166 653.774792,58.0715784 C653.774792,56.5649196 652.903015,55.484072 651.159435,54.8290029 C649.415854,54.1739339 646.735947,53.6171336 643.119632,53.1585853 C638.857547,52.5035163 635.33815,51.7501982 632.561337,50.8986085 C629.784524,50.0470187 627.379065,48.5403826 625.344888,46.3786548 C623.310711,44.2169271 622.293637,41.1381488 622.293637,37.1422278 C622.293637,33.8013758 623.246135,30.8372329 625.151158,28.2497103 C627.056181,25.6621877 629.832952,23.6478806 633.481555,22.2067288 C637.130159,20.7655769 641.440612,20.0450118 646.413045,20.0450118 C650.093937,20.0450118 653.75863,20.4544238 657.407233,21.2732601 C661.055836,22.0920964 664.074768,23.2220735 666.464119,24.6632253 L661.427134,35.57007 C656.842164,32.9497939 651.837517,31.6396755 646.413045,31.6396755 C643.184193,31.6396755 640.76259,32.098217 639.148163,33.0153136 C637.533737,33.9324102 636.726536,35.1115168 636.726536,36.5526686 C636.726536,38.1903412 637.598313,39.3366948 639.341893,39.9917638 C641.085474,40.6468328 643.862245,41.2691391 647.672291,41.8587012 C651.934377,42.5792771 655.421485,43.3489717 658.133721,44.1678079 C660.845957,44.9866442 663.202984,46.4769039 665.204873,48.6386316 C667.206762,50.8003594 668.207691,53.8136317 668.207691,57.6785389 C668.207691,60.9538841 667.23905,63.8688975 665.301738,66.4236667 C663.364427,68.9784358 660.539223,70.9599899 656.826043,72.3683883 C653.112862,73.7767867 648.705544,74.4809753 643.603957,74.4809753 Z" id="Læsekompas"></path>
        </g>
        <text id="Lad-biblioteket-insp" font-family="Montserrat-SemiBold, Montserrat" font-size="48" font-weight="500" line-spacing="60" fill="#F37362">
            <tspan x="117" y="133">LAD BIBLIOTEKET INSPIRERE DIG</tspan>
        </text>
    </g>
</svg>