<svg id="Logo" xmlns="http://www.w3.org/2000/svg" viewBox="0 0 201.26 201.26"><defs><style>.cls-1{fill:none;stroke:#000;stroke-miterlimit:10;stroke-width:5.78px;}</style></defs><title>Læsekompasset logoArtboard 1</title><g id="Compass"><line class="cls-1" x1="72.53" y1="0.75" x2="78" y2="21.16"/><line class="cls-1" x1="120.81" y1="180.93" x2="125.84" y2="199.7"/><line class="cls-1" x1="0.75" y1="127.48" x2="19.51" y2="122.45"/><line class="cls-1" x1="179.29" y1="79.64" x2="198.06" y2="74.61"/><line class="cls-1" x1="15.37" y1="52.53" x2="27.78" y2="59.69"/><line class="cls-1" x1="171.03" y1="142.4" x2="183.43" y2="149.56"/><line class="cls-1" x1="50.89" y1="185.07" x2="58.05" y2="172.67"/><line class="cls-1" x1="140.76" y1="29.42" x2="147.92" y2="17.02"/><line class="cls-1" x1="40.33" y1="24.07" x2="49.05" y2="35.43"/><line class="cls-1" x1="149.75" y1="166.66" x2="158.47" y2="178.02"/><line class="cls-1" x1="22.42" y1="160.11" x2="33.79" y2="151.39"/><line class="cls-1" x1="165.02" y1="50.7" x2="176.38" y2="41.98"/><line class="cls-1" x1="3.2" y1="88.38" x2="17.4" y2="90.25"/><line class="cls-1" x1="181.4" y1="111.84" x2="195.6" y2="113.71"/><line class="cls-1" x1="86.74" y1="197.24" x2="88.61" y2="183.05"/><line class="cls-1" x1="110.2" y1="19.05" x2="112.07" y2="4.85"/><line class="cls-1" x1="56.49" y1="14.02" x2="62.82" y2="26.87"/><line class="cls-1" x1="135.98" y1="175.22" x2="142.32" y2="188.07"/><line class="cls-1" x1="12.38" y1="143.96" x2="25.22" y2="137.62"/><line class="cls-1" x1="173.58" y1="64.46" x2="186.42" y2="58.13"/><line class="cls-1" x1="7.52" y1="69.86" x2="21.08" y2="74.46"/><line class="cls-1" x1="177.72" y1="127.63" x2="191.28" y2="132.24"/><line class="cls-1" x1="68.21" y1="192.92" x2="72.82" y2="179.36"/><line class="cls-1" x1="125.99" y1="22.73" x2="130.59" y2="9.17"/><line class="cls-1" x1="26.45" y1="37.07" x2="37.22" y2="46.51"/><line class="cls-1" x1="161.58" y1="155.58" x2="172.35" y2="165.02"/><line class="cls-1" x1="35.43" y1="173.99" x2="44.87" y2="163.23"/><line class="cls-1" x1="153.93" y1="38.86" x2="163.38" y2="28.1"/><line class="cls-1" x1="2.58" y1="107.39" x2="16.87" y2="106.46"/><line class="cls-1" x1="181.93" y1="95.64" x2="196.22" y2="94.7"/><line class="cls-1" x1="105.75" y1="197.87" x2="104.81" y2="183.57"/><line class="cls-1" x1="93.99" y1="18.52" x2="93.06" y2="4.22"/></g><g id="Book"><path class="cls-1" d="M145.15,124.21a11.38,11.38,0,0,0-8,14L76.83,154.77,56.71,81.52a11.38,11.38,0,0,1,8-14"/><path class="cls-1" d="M76.83,154.77a11.38,11.38,0,0,1,8-14"/><rect class="cls-1" x="73.61" y="57.89" width="62.6" height="75.96" transform="translate(-21.64 31.2) rotate(-15.36)"/></g></svg>
